<?xml version="1.0" encoding="UTF-8" standalone="no"?> <svg width="64" height="64" viewBox="0 0 64 64" fill="none" xmlns="http://www.w3.org/2000/svg">
<path d="M32 2.5C26.3003 2.50794 20.8363 4.77566 16.806 8.80597C12.7757 12.8363 10.5079 18.3003 10.5 24C10.5 35.44 30 59.9 30.83 60.94C30.9706 61.1152 31.1487 61.2566 31.3512 61.3537C31.5537 61.4509 31.7754 61.5013 32 61.5013C32.2246 61.5013 32.4463 61.4509 32.6488 61.3537C32.8513 61.2566 33.0294 61.1152 33.17 60.94C34 59.9 53.5 35.44 53.5 24C53.4921 18.3003 51.2243 12.8363 47.194 8.80597C43.1637 4.77566 37.6997 2.50794 32 2.5V2.5ZM32 36.79C29.4704 36.79 26.9976 36.0399 24.8943 34.6345C22.791 33.2291 21.1516 31.2316 20.1836 28.8945C19.2155 26.5575 18.9623 23.9858 19.4558 21.5048C19.9493 19.0238 21.1674 16.7448 22.9561 14.9561C24.7448 13.1674 27.0238 11.9493 29.5048 11.4558C31.9858 10.9623 34.5575 11.2155 36.8945 12.1836C39.2316 13.1516 41.2291 14.791 42.6345 16.8943C44.0399 18.9976 44.79 21.4704 44.79 24C44.7847 27.3905 43.4355 30.6406 41.0381 33.0381C38.6406 35.4355 35.3905 36.7847 32 36.79Z" fill="black"/>
</svg>
